<svg width="88" height="81" viewBox="0 0 88 81" fill="none" xmlns="http://www.w3.org/2000/svg">
<path d="M67.8603 42.779C45.9316 42.779 24.0029 42.779 1.98438 42.779C1.98438 40.9334 1.98438 39.141 1.98438 37.2363C23.8172 37.2363 45.6799 37.2363 67.5367 37.2363C60.0175 34.4443 54.5712 29.2861 50.2155 22.8857C45.8477 16.4557 43.2115 9.4342 43.0857 1.5254C45.0988 1.5254 47.052 1.5254 49.0232 1.5254C49.1909 2.86227 49.2928 4.19913 49.5324 5.51825C50.6708 11.8122 53.7384 17.1715 57.8965 21.957C64.9364 30.0669 73.7379 35.2192 84.4446 37.1003C84.6483 37.1357 84.846 37.1653 85.0497 37.2067C85.3193 37.2541 85.5829 37.3132 85.9844 37.3901V42.6548C76.3921 43.9621 68.1778 48.0496 61.2577 54.5623C54.3376 61.081 49.6043 68.7769 49.0591 78.5254C47.064 78.5254 45.1407 78.5254 43.0976 78.5254C43.1995 70.5574 45.8837 63.4886 50.3113 57.035C54.721 50.605 60.1792 45.364 67.8663 42.7849L67.8603 42.779Z" fill="#8BFF80" stroke="#8BFF80" stroke-width="3" stroke-miterlimit="10" stroke-linejoin="round"/>
</svg>
