<svg width="55" height="54" viewBox="0 0 55 54" fill="none" xmlns="http://www.w3.org/2000/svg">
<path d="M37.4408 34.2335L37.3014 34.4292L37.367 34.6603L42.5254 52.8303H35.033L31.3085 39.7162L31.1591 39.19L30.6484 39.3859C28.8934 40.0592 26.8281 40.4026 24.4241 40.4026C20.9656 40.4026 18.0364 39.2011 15.973 37.1383C13.9099 35.0759 12.6808 32.1208 12.6808 28.5548C12.6808 21.9365 17.2391 17.4769 23.1631 17.4769C27.0065 17.4769 30.5337 19.2757 32.6411 23.1832L33.431 24.6477L33.5792 22.9904L33.5802 22.9801C33.6422 22.2869 33.7064 21.5684 33.7064 20.8362C33.7064 17.1595 32.6102 13.9802 30.5746 11.7137C28.5337 9.44126 25.5853 8.12843 21.9737 8.12843C18.1197 8.12843 14.5368 9.47109 11.9241 12.4559C9.31746 15.4338 7.72783 19.9872 7.72783 26.3152C7.72783 33.54 8.46151 40.6932 12.1319 52.8303H4.76423C1.35044 41.2936 0.5 34.1099 0.5 26.2452C0.5 18.3375 2.71888 11.8991 6.48659 7.44669C10.2484 3.00118 15.5825 0.5 21.9021 0.5C27.8016 0.5 32.6411 2.65939 36.0079 6.24375C39.3778 9.83138 41.3009 14.8778 41.3009 20.6962C41.3009 25.6708 40.0662 30.5502 37.4408 34.2335ZM28.7261 32.0268L29.0866 31.8371L28.9737 31.4457C28.3142 29.1586 27.6339 27.4464 26.7463 26.3035C25.829 25.1224 24.6943 24.5554 23.2168 24.5554C22.0623 24.5554 21.092 24.948 20.4121 25.6666C19.7354 26.3817 19.3899 27.3732 19.3899 28.4948C19.3899 29.9068 19.9587 31.0551 20.9646 31.8377C21.956 32.609 23.3298 32.9941 24.9071 32.9941H24.916C26.3223 32.9941 27.6 32.6192 28.7261 32.0268Z" fill="#EDFFEC" stroke="#EDFFEC"/>
<mask id="path-2-inside-1_2611_56" fill="white">
<path d="M46.7188 49.0713C46.7188 46.5018 48.4001 44.6621 50.7432 44.6621C53.0864 44.6621 54.7856 46.4918 54.7856 49.0713C54.7856 51.6508 53.0685 53.4505 50.7432 53.4505C48.418 53.4505 46.7188 51.6308 46.7188 49.0713ZM50.7343 52.4707C52.5319 52.4707 53.7929 51.0709 53.7929 49.0713C53.7929 47.0717 52.5408 45.6519 50.7343 45.6519C48.9277 45.6519 47.6846 47.0817 47.6846 49.0713C47.6846 51.0609 48.9277 52.4707 50.7343 52.4707Z"/>
</mask>
<path d="M46.7188 49.0713C46.7188 46.5018 48.4001 44.6621 50.7432 44.6621C53.0864 44.6621 54.7856 46.4918 54.7856 49.0713C54.7856 51.6508 53.0685 53.4505 50.7432 53.4505C48.418 53.4505 46.7188 51.6308 46.7188 49.0713ZM50.7343 52.4707C52.5319 52.4707 53.7929 51.0709 53.7929 49.0713C53.7929 47.0717 52.5408 45.6519 50.7343 45.6519C48.9277 45.6519 47.6846 47.0817 47.6846 49.0713C47.6846 51.0609 48.9277 52.4707 50.7343 52.4707Z" fill="#EDFFEC"/>
<path d="M47.7188 49.0713C47.7188 46.9666 49.036 45.6621 50.7432 45.6621V43.6621C47.7642 43.6621 45.7188 46.037 45.7188 49.0713H47.7188ZM50.7432 45.6621C52.4575 45.6621 53.7856 46.9642 53.7856 49.0713H55.7856C55.7856 46.0193 53.7152 43.6621 50.7432 43.6621V45.6621ZM53.7856 49.0713C53.7856 51.1659 52.4512 52.4505 50.7432 52.4505V54.4505C53.6858 54.4505 55.7856 52.1358 55.7856 49.0713H53.7856ZM50.7432 52.4505C49.0439 52.4505 47.7188 51.1551 47.7188 49.0713H45.7188C45.7188 52.1065 47.7921 54.4505 50.7432 54.4505V52.4505ZM50.7343 53.4707C51.9074 53.4707 52.9453 53.0071 53.681 52.1899C54.4098 51.3801 54.7929 50.2805 54.7929 49.0713H52.7929C52.7929 49.8617 52.5455 50.4618 52.1944 50.8519C51.8501 51.2344 51.3587 51.4707 50.7343 51.4707V53.4707ZM54.7929 49.0713C54.7929 47.8644 54.4135 46.7613 53.6877 45.9466C52.9544 45.1233 51.9155 44.6519 50.7343 44.6519V46.6519C51.3596 46.6519 51.8501 46.8904 52.1943 47.2769C52.5463 47.672 52.7929 48.2786 52.7929 49.0713H54.7929ZM50.7343 44.6519C49.5504 44.6519 48.5134 45.1278 47.7832 45.9527C47.0612 46.7682 46.6846 47.8703 46.6846 49.0713H48.6846C48.6846 48.2827 48.9296 47.675 49.2808 47.2784C49.6238 46.8909 50.1116 46.6519 50.7343 46.6519V44.6519ZM46.6846 49.0713C46.6846 50.2727 47.0616 51.3715 47.786 52.183C48.5182 53.0033 49.5551 53.4707 50.7343 53.4707V51.4707C50.107 51.4707 49.619 51.2332 49.278 50.8512C48.9292 50.4605 48.6846 49.8595 48.6846 49.0713H46.6846Z" fill="#EDFFEC" mask="url(#path-2-inside-1_2611_56)"/>
<path d="M50.8074 46.9727C51.4588 46.9727 51.9714 47.3054 52.2369 47.8628L52.1688 47.8766C51.9109 47.3932 51.4239 47.0925 50.8342 47.0925C50.3337 47.0925 49.8874 47.2966 49.5745 47.67C49.2678 48.0361 49.1179 48.5286 49.1179 49.0722C49.1179 49.6118 49.2615 50.0968 49.5702 50.4548C49.8857 50.8206 50.3298 51.0019 50.8163 51.0019C51.2074 51.0019 51.5672 50.8858 51.8515 50.6479C52.0007 50.5231 52.1193 50.373 52.2087 50.2058L52.2794 50.2216C52.0189 50.7441 51.4738 51.1117 50.8074 51.1117C49.7856 51.1117 49 50.3115 49 49.0822C49 47.8327 49.8125 46.9727 50.8074 46.9727Z" fill="#EDFFEC" stroke="#EDFFEC"/>
</svg>
